<?xml version="1.0" encoding="UTF-8"?>
<!DOCTYPE svg PUBLIC "-//W3C//DTD SVG 1.1//EN" "http://www.w3.org/Graphics/SVG/1.1/DTD/svg11.dtd">
<!-- Creator: CorelDRAW X7 -->
<svg xmlns="http://www.w3.org/2000/svg" xml:space="preserve" width="48.184mm" height="48.0195mm" version="1.1" style="shape-rendering:geometricPrecision; text-rendering:geometricPrecision; image-rendering:optimizeQuality; fill-rule:evenodd; clip-rule:evenodd" viewBox="0 0 1414 1409" xmlns:xlink="http://www.w3.org/1999/xlink">
 <defs>
  <style type="text/css">
   <![CDATA[
    .fil0 {fill:#BEBEBE}
   ]]>
  </style>
 </defs>
 <g id="Слой_x0020_1">
  <metadata id="CorelCorpID_0Corel-Layer"/>
  <path class="fil0" d="M877 566c7,89 13,133 -27,206 -74,137 -222,123 -287,-3 -39,-75 -28,-117 -24,-203l-93 -36c-47,224 53,405 240,441 -230,28 -291,327 -237,438l90 -35c-8,-86 -11,-139 27,-208 71,-131 218,-127 286,2 35,67 33,123 24,205l90 34c44,-76 4,-228 -29,-290 -56,-103 -121,-121 -203,-147 101,-25 162,-73 203,-150 32,-62 73,-215 29,-290l-89 36z"/>
  <path class="fil0" d="M434 511c20,3 81,-23 96,-35 3,-71 2,-146 27,-213 10,-28 12,-42 48,-40 50,72 44,191 47,297l97 -38c4,-81 1,-228 64,-259 46,2 56,59 64,101 12,54 11,101 13,158 17,11 83,43 92,35 20,-31 3,-137 -3,-176 -38,-221 -195,-292 -275,-130 -29,-30 -45,-78 -99,-87 -54,-10 -92,38 -112,70 -53,82 -62,202 -59,317z"/>
  <path class="fil0" d="M1410 525c-90,-38 -228,-6 -296,34 -198,118 -176,350 -5,448 105,60 172,58 305,39l-38 -93c-78,11 -149,6 -208,-27 -47,-25 -97,-75 -95,-145 2,-72 54,-116 101,-140 74,-38 115,-33 203,-25l33 -91z"/>
  <path class="fil0" d="M230 624c44,22 89,62 103,113 34,127 -104,210 -220,210l-76 -5 -35 89c69,46 238,0 295,-32 232,-130 174,-478 -178,-501 -40,-3 -74,6 -119,16l39 90c81,-3 117,-16 191,20z"/>
  <path class="fil0" d="M496 7c-52,25 -27,75 0,83l439 -1c36,-14 35,-71 -6,-84 -20,-7 -414,-7 -433,2z"/>
 </g>
</svg>