<?xml version="1.0" standalone="no"?>
<!DOCTYPE svg PUBLIC "-//W3C//DTD SVG 1.0//EN" "http://www.w3.org/TR/2001/REC-SVG-20010904/DTD/svg10.dtd">
<svg xmlns="http://www.w3.org/2000/svg" xmlns:xlink="http://www.w3.org/1999/xlink" id="body_1" width="102" height="77">

<g transform="matrix(0.012024688 0 0 0.012024688 -75.25049 -140.06631)">
	<g>
        <path d="M10820 14138C 10514 13924 10075 13879 9677 13912C 9678 13914 9654 13985 9786 14235L9786 14235L9883 14232C 10577 14200 11350 14596 9637 14665L9637 14665L9770 14993C 10021 14996 10631 14999 10666 15249C 10629 15472 9834 15461 9761 15480L9761 15480L9640 15802C 10161 15847 11093 15679 11003 15177C 10969 14987 10772 14892 10699 14823C 10713 14809 11313 14483 10820 14138z" stroke="none" fill="#808080" fill-rule="nonzero" />
        <path d="M12905 13948C 11735 13600 10814 14934 11894 15604C 12159 15768 12707 15846 12905 15714L12905 15714L12785 15411C 12460 15426 12365 15465 12084 15318C 11675 15105 11624 14586 12100 14344C 12378 14202 12479 14250 12786 14259L12786 14259L12905 13948z" stroke="none" fill="#808080" fill-rule="nonzero" />
        <path d="M7749 13970C 7271 13764 6270 14086 6259 14842C 6254 15202 6501 15486 6725 15614C 7083 15819 7312 15812 7763 15748L7763 15748L7634 15428C 7380 15466 7120 15445 6925 15338C 6768 15251 6596 15079 6602 14842C 6609 14597 6786 14447 6945 14366C 7198 14236 7338 14255 7638 14281L7638 14281L7749 13970z" stroke="none" fill="#808080" fill-rule="nonzero" />
        <path d="M13216 15479C 13215 15183 13154 15056 13299 14788C 13560 14307 14075 14376 14276 14775C 14398 15017 14392 15170 14364 15471L14364 15471L14679 15595C 14921 14924 14425 14098 13782 14109C 13139 14119 12690 14897 12906 15600L12906 15600L13216 15479z" stroke="none" fill="#808080" fill-rule="nonzero" />
        <path d="M8603 15618C 9477 15618 9707 14511 9515 14138L9515 14138L9206 14255C 9239 14499 9244 14695 9147 14900C 8805 15625 8004 15213 8037 14493L8037 14493L8060 14253L7755 14133C 7608 14390 7739 14911 7856 15124C 7973 15338 8243 15618 8603 15618z" stroke="none" fill="#808080" fill-rule="nonzero" />
        <path d="M11053 15579C 11087 15716 11298 15742 11358 15620C 11398 15538 11381 14198 11370 14149C 11337 14010 11139 13986 11071 14109C 11024 14194 11041 15525 11053 15579z" stroke="none" fill="#808080" fill-rule="nonzero" />
	</g>
</g>
</svg>
